<svg xmlns="http://www.w3.org/2000/svg" width="80" height="80" viewBox="0 0 68 68"><path d="M 7.4003906 2.75 C 4.9711914 2.75 3 4.7221679 3 7.140625 C 3 9.2478361 4.4860006 11.105523 6.6699219 11.470703 L 6.6699219 45.640625 C 6.6699219 49.240723 9.6010742 52.169922 13.201172 52.169922 L 33.515625 52.169922 L 33.515625 57.394531 C 31.795166 57.84375 30.521484 59.397461 30.521484 61.25 C 30.521484 63.459961 32.311523 65.25 34.521484 65.25 C 36.721436 65.25 38.521484 63.459961 38.521484 61.25 C 38.521484 59.395508 37.235107 57.839844 35.515625 57.392578 L 35.515625 52.169922 L 54.810547 52.169922 C 58.4104 52.169922 61.339844 49.240723 61.339844 45.640625 L 61.339844 11.466797 C 63.410645 11.115234 65 9.3183593 65 7.140625 C 65 4.729434 63.052837 2.75 60.609375 2.75 L 7.4003906 2.75 z M 8.6699219 11.689453 L 59.339844 11.689453 L 59.339844 45.640625 C 59.339844 48.140625 57.300293 50.169922 54.810547 50.169922 L 13.201172 50.169922 C 10.701172 50.169922 8.6699219 48.140625 8.6699219 45.640625 L 8.6699219 11.689453 z M 21.490234 15.710938 C 16.350098 15.710938 12.169922 19.890625 12.169922 25.041016 C 12.169922 30.180664 16.350098 34.349609 21.490234 34.349609 C 23.980225 34.349609 26.319824 33.371094 28.089844 31.621094 C 28.149902 31.561035 28.200195 31.499512 28.240234 31.439453 C 29.860107 29.749512 30.770996 27.541016 30.800781 25.140625 C 30.811035 25.101074 30.810547 25.049805 30.810547 25.009766 C 30.800293 19.879883 26.620117 15.710938 21.490234 15.710938 z M 22.490234 17.779297 C 25.720215 18.219238 28.280029 20.779785 28.740234 24.009766 L 22.490234 24.009766 L 22.490234 17.779297 z M 38.900391 18.330078 C 38.350342 18.330078 37.900391 18.779785 37.900391 19.330078 C 37.900391 19.889648 38.350342 20.330078 38.900391 20.330078 L 41.650391 20.330078 C 42.200439 20.330078 42.650391 19.889648 42.650391 19.330078 C 42.650391 18.779785 42.200439 18.330078 41.650391 18.330078 L 38.900391 18.330078 z M 46.650391 18.330078 C 46.100342 18.330078 45.650391 18.779785 45.650391 19.330078 C 45.650391 19.889648 46.100342 20.330078 46.650391 20.330078 L 55.339844 20.330078 C 55.889893 20.330078 56.339844 19.889648 56.339844 19.330078 C 56.339844 18.779785 55.889893 18.330078 55.339844 18.330078 L 46.650391 18.330078 z M 38.900391 24.029297 C 38.350342 24.029297 37.900391 24.479492 37.900391 25.029297 C 37.900391 25.57959 38.350342 26.029297 38.900391 26.029297 L 41.650391 26.029297 C 42.200439 26.029297 42.650391 25.57959 42.650391 25.029297 C 42.650391 24.479492 42.200439 24.029297 41.650391 24.029297 L 38.900391 24.029297 z M 46.650391 24.029297 C 46.100342 24.029297 45.650391 24.479492 45.650391 25.029297 C 45.650391 25.57959 46.100342 26.029297 46.650391 26.029297 L 55.339844 26.029297 C 55.889893 26.029297 56.339844 25.57959 56.339844 25.029297 C 56.339844 24.479492 55.889893 24.029297 55.339844 24.029297 L 46.650391 24.029297 z M 23.900391 26.009766 L 28.740234 26.009766 C 28.570068 27.259766 28.090088 28.429688 27.330078 29.429688 L 23.900391 26.009766 z M 38.900391 29.730469 C 38.350342 29.730469 37.900391 30.17041 37.900391 30.730469 C 37.900391 31.280273 38.350342 31.730469 38.900391 31.730469 L 41.650391 31.730469 C 42.200439 31.730469 42.650391 31.280273 42.650391 30.730469 C 42.650391 30.17041 42.200439 29.730469 41.650391 29.730469 L 38.900391 29.730469 z M 46.650391 29.730469 C 46.100342 29.730469 45.650391 30.17041 45.650391 30.730469 C 45.650391 31.280273 46.100342 31.730469 46.650391 31.730469 L 55.339844 31.730469 C 55.889893 31.730469 56.339844 31.280273 56.339844 30.730469 C 56.339844 30.17041 55.889893 29.730469 55.339844 29.730469 L 46.650391 29.730469 z M 45.941406 36.189453 C 45.541504 36.189453 45.230469 36.500977 45.230469 36.890625 L 45.230469 45.451172 C 45.230469 45.84082 45.541504 46.160156 45.941406 46.160156 L 48.800781 46.160156 C 49.190918 46.160156 49.501953 45.84082 49.501953 45.451172 L 49.501953 36.890625 C 49.501953 36.500977 49.190918 36.189453 48.800781 36.189453 L 45.941406 36.189453 z M 52.271484 38.640625 C 51.871338 38.640625 51.560547 38.959473 51.560547 39.349609 L 51.560547 45.451172 C 51.560547 45.84082 51.871338 46.160156 52.271484 46.160156 L 55.130859 46.160156 C 55.520996 46.160156 55.830078 45.84082 55.830078 45.451172 L 55.830078 39.349609 C 55.830078 38.959473 55.520996 38.640625 55.130859 38.640625 L 52.271484 38.640625 z M 13.560547 38.810547 C 13.010254 38.810547 12.560547 39.260254 12.560547 39.810547 C 12.560547 40.360352 13.010254 40.810547 13.560547 40.810547 L 29.810547 40.810547 C 30.360352 40.810547 30.810547 40.360352 30.810547 39.810547 C 30.810547 39.260254 30.360351 38.810547 29.810547 38.810547 L 13.560547 38.810547 z M 39.611328 41.220703 C 39.221436 41.220703 38.900391 41.540039 38.900391 41.929688 L 38.900391 45.451172 C 38.900391 45.84082 39.221436 46.160156 39.611328 46.160156 L 42.470703 46.160156 C 42.860596 46.160156 43.169922 45.84082 43.169922 45.451172 L 43.169922 41.929688 C 43.169922 41.540039 42.860596 41.220703 42.470703 41.220703 L 39.611328 41.220703 z M 13.560547 44.390625 C 13.010254 44.390625 12.560547 44.84082 12.560547 45.390625 C 12.560547 45.951172 13.010254 46.390625 13.560547 46.390625 L 29.810547 46.390625 C 30.360352 46.390625 30.810547 45.951172 30.810547 45.390625 C 30.810547 44.84082 30.360351 44.390625 29.810547 44.390625 L 13.560547 44.390625 z"/></svg>