<svg xmlns="http://www.w3.org/2000/svg"  viewBox="0 0 68 68" width="80px" height="80px"><path d="M 39.496094 2.0546875 C 38.693726 2.0409912 37.893359 2.0867188 37.099609 2.1992188 C 26.999609 2.7992187 20.699219 8.1 17.699219 15 L 12.599609 15 L 12.599609 10.400391 C 13.999609 9.9003906 15.099609 8.6 15.099609 7 C 15.099609 5.1 13.499609 3.5 11.599609 3.5 C 9.6996094 3.5 8.0996094 5.1 8.0996094 7 C 8.0996094 8.6 9.1996094 9.9007812 10.599609 10.300781 L 10.599609 16 C 10.599609 16.6 10.999609 17 11.599609 17 L 16.900391 17 C 15.900391 19.9 15.499609 22.999609 15.599609 26.099609 C 15.599609 26.699609 16.099609 27.099609 16.599609 27.099609 C 17.199609 27.099609 17.599609 26.599609 17.599609 26.099609 C 17.499609 22.999609 18 19.8 19 17 L 26.699219 17 L 26.699219 21.699219 L 19.800781 21.699219 C 19.200781 21.699219 18.800781 22.099219 18.800781 22.699219 C 18.800781 23.299219 19.200781 23.699219 19.800781 23.699219 L 26.699219 23.699219 L 26.699219 28.400391 L 11.599609 28.400391 C 10.999609 28.400391 10.599609 28.800391 10.599609 29.400391 L 10.599609 35 C 9.1996094 35.4 8.0996094 36.800781 8.0996094 38.300781 C 8.0996094 40.200781 9.6996094 41.800781 11.599609 41.800781 C 13.499609 41.800781 15.099609 40.200781 15.099609 38.300781 C 15.099609 36.700781 13.999609 35.4 12.599609 35 L 12.599609 30.400391 L 26.699219 30.400391 L 26.699219 30.699219 C 26.699219 32.399219 27.999219 33.699219 29.699219 33.699219 L 32.5 33.699219 L 32.5 44.800781 C 31 45.200781 30 46.499609 30 48.099609 C 30 49.999609 31.6 51.599609 33.5 51.599609 C 35.4 51.599609 37 49.999609 37 48.099609 C 37 46.499609 35.9 45.200781 34.5 44.800781 L 34.5 33.599609 L 40.5 33.599609 L 40.5 41.300781 C 40.5 41.600781 40.600391 41.899609 40.900391 42.099609 L 44.599609 45.199219 C 44.399609 45.599219 44.300781 46.099609 44.300781 46.599609 C 44.300781 48.499609 45.900781 50.099609 47.800781 50.099609 C 49.700781 50.099609 51.300781 48.499609 51.300781 46.599609 C 51.300781 44.699609 49.700781 43.099609 47.800781 43.099609 C 47.100781 43.099609 46.400391 43.299219 45.900391 43.699219 L 42.599609 40.900391 L 42.599609 33.699219 L 45.800781 33.699219 C 47.500781 33.699219 48.800781 32.399219 48.800781 30.699219 L 48.800781 24.699219 L 52.5 24.699219 L 52.5 32.400391 C 51.1 32.800391 50 34.199219 50 35.699219 C 50 37.599219 51.6 39.199219 53.5 39.199219 C 55.4 39.199219 57 37.599219 57 35.699219 C 57 34.099219 55.9 32.800391 54.5 32.400391 L 54.5 23.699219 C 54.5 23.099219 54.1 22.699219 53.5 22.699219 L 48.800781 22.699219 L 48.800781 18.400391 L 51.699219 18.400391 C 52.299219 18.400391 52.699219 18.000391 52.699219 17.400391 C 52.699219 16.800391 52.299219 16.400391 51.699219 16.400391 L 48.800781 16.400391 L 48.800781 14.800781 C 48.800781 13.100781 47.500781 11.800781 45.800781 11.800781 L 44.400391 11.800781 L 44.400391 9.5 C 44.400391 8.9 44.000391 8.5 43.400391 8.5 C 42.800391 8.5 42.400391 8.9 42.400391 9.5 L 42.400391 11.599609 L 38.800781 11.599609 L 38.800781 9.5 C 38.800781 8.9 38.400781 8.5 37.800781 8.5 C 37.200781 8.5 36.800781 8.9 36.800781 9.5 L 36.800781 11.599609 L 33.199219 11.599609 L 33.199219 9.5 C 33.199219 8.9 32.799219 8.5 32.199219 8.5 C 31.599219 8.5 31.199219 8.9 31.199219 9.5 L 31.199219 11.599609 L 29.800781 11.599609 C 28.100781 11.599609 26.800781 12.899609 26.800781 14.599609 L 26.800781 15 L 20 15 C 22.9 9.2 28.599609 4.6992187 37.599609 4.1992188 C 48.599609 2.3992188 62.3 16 59.5 29 C 59.3 29.9 59.400391 30.899219 59.900391 31.699219 L 64.199219 39.199219 C 63.899219 39.399219 63.100781 39.700391 61.300781 39.900391 C 60.800781 40.000391 60.400391 40.400391 60.400391 40.900391 C 60.400391 41.100391 60.4 42.600391 61 43.900391 L 58 45.199219 C 57.3 45.499219 57.200391 46.5 57.900391 47 L 61.5 49.199219 L 61.5 51.199219 C 61.5 53.299219 59.799219 55 57.699219 55 L 48.5 55 C 47.9 55 47.4 55.499609 47.5 56.099609 L 48.199219 62.199219 C 48.399219 63.299219 47.500391 64.300781 46.400391 64.300781 L 24.300781 64.300781 C 23.300781 64.300781 22.400391 63.500391 22.400391 62.400391 C 22.500391 53.800391 22.099609 50.300391 22.099609 47.900391 C 21.299609 37.400391 19.399219 34.4 18.699219 32.5 C 18.499219 32 17.900391 31.700391 17.400391 31.900391 C 16.900391 32.100391 16.600781 32.699219 16.800781 33.199219 C 17.400781 34.899219 19.299609 37.799609 20.099609 48.099609 C 20.199609 51.499609 20.600391 53.600391 20.400391 62.400391 C 20.400391 64.600391 22.100781 66.300781 24.300781 66.300781 L 46.099609 66.300781 C 48.499609 66.300781 50.200391 64.200391 49.900391 61.900391 L 49.400391 56.900391 L 57.5 56.900391 C 60.7 56.900391 63.300781 54.299609 63.300781 51.099609 L 63.300781 48.599609 C 63.300781 48.299609 63.100781 47.899219 62.800781 47.699219 L 60.400391 46.199219 L 62.699219 45.199219 C 63.399219 44.899219 63.500391 44 62.900391 43.5 C 62.600391 43.2 62.299219 42.399219 62.199219 41.699219 C 63.399219 41.499219 64.3 41.200391 65 40.900391 C 65.9 40.400391 66.299219 39.199219 65.699219 38.199219 L 61.400391 30.699219 C 61.200391 30.299219 61.099219 29.900391 61.199219 29.400391 C 64.011719 16.181641 51.531616 2.2601318 39.496094 2.0546875 z M 11.599609 5.5 C 12.399609 5.5 13.099609 6.2 13.099609 7 C 13.099609 7.8 12.399609 8.5 11.599609 8.5 C 10.799609 8.5 10.099609 7.8 10.099609 7 C 10.099609 6.2 10.799609 5.5 11.599609 5.5 z M 29.699219 13.599609 L 45.699219 13.599609 C 46.299219 13.599609 46.699219 13.999609 46.699219 14.599609 L 46.699219 30.599609 C 46.699219 31.199609 46.299219 31.599609 45.699219 31.599609 L 29.699219 31.599609 C 29.099219 31.599609 28.699219 31.199609 28.699219 30.599609 L 28.699219 14.599609 C 28.699219 13.999609 29.099219 13.599609 29.699219 13.599609 z M 35.599609 17.599609 C 33.899609 17.599609 32.599609 18.899609 32.599609 20.599609 L 32.599609 26.599609 C 32.599609 27.199609 32.999609 27.599609 33.599609 27.599609 C 34.199609 27.599609 34.599609 27.199609 34.599609 26.599609 L 34.599609 24.099609 L 36.599609 24.099609 L 36.599609 26.599609 C 36.599609 27.199609 36.999609 27.599609 37.599609 27.599609 C 38.199609 27.599609 38.599609 27.199609 38.599609 26.599609 L 38.599609 20.599609 C 38.599609 18.899609 37.299609 17.599609 35.599609 17.599609 z M 41.900391 17.599609 C 41.300391 17.599609 40.900391 17.999609 40.900391 18.599609 L 40.900391 26.599609 C 40.900391 27.199609 41.300391 27.599609 41.900391 27.599609 C 42.500391 27.599609 42.900391 27.199609 42.900391 26.599609 L 42.900391 18.599609 C 42.900391 17.999609 42.500391 17.599609 41.900391 17.599609 z M 5.5 19.099609 C 3.6 19.099609 2 20.699609 2 22.599609 C 2 24.499609 3.6 26.099609 5.5 26.099609 C 7.1 26.099609 8.4007812 24.999609 8.8007812 23.599609 L 13.400391 23.599609 C 14.000391 23.599609 14.400391 23.199609 14.400391 22.599609 C 14.400391 21.999609 14.000391 21.599609 13.400391 21.599609 L 8.8007812 21.599609 C 8.4007812 20.199609 7.1 19.099609 5.5 19.099609 z M 35.599609 19.599609 C 36.199609 19.599609 36.599609 19.999609 36.599609 20.599609 L 36.599609 22.099609 L 34.599609 22.099609 L 34.599609 20.599609 C 34.599609 19.999609 34.999609 19.599609 35.599609 19.599609 z M 5.5 21.099609 C 6.3 21.099609 7 21.799609 7 22.599609 C 7 23.499609 6.3 24.099609 5.5 24.099609 C 4.7 24.099609 4 23.399609 4 22.599609 C 4 21.799609 4.7 21.099609 5.5 21.099609 z M 53.400391 34.199219 C 54.300391 34.199219 54.900391 34.799219 54.900391 35.699219 C 54.900391 36.499219 54.200391 37.199219 53.400391 37.199219 C 52.600391 37.199219 51.900391 36.499219 51.900391 35.699219 C 51.900391 34.899219 52.600391 34.199219 53.400391 34.199219 z M 11.599609 36.800781 C 12.399609 36.800781 13.099609 37.500781 13.099609 38.300781 C 13.099609 39.100781 12.399609 39.800781 11.599609 39.800781 C 10.799609 39.800781 10.099609 39.100781 10.099609 38.300781 C 10.099609 37.500781 10.799609 36.800781 11.599609 36.800781 z M 47.800781 45.099609 C 48.600781 45.099609 49.300781 45.799609 49.300781 46.599609 C 49.300781 47.399609 48.600781 48.099609 47.800781 48.099609 C 47.000781 48.099609 46.300781 47.399609 46.300781 46.599609 C 46.300781 45.799609 47.000781 45.099609 47.800781 45.099609 z M 33.5 46.599609 C 34.3 46.599609 35 47.299609 35 48.099609 C 35 48.899609 34.3 49.599609 33.5 49.599609 C 32.7 49.599609 32 48.899609 32 48.099609 C 32 47.299609 32.7 46.599609 33.5 46.599609 z"/></svg>