<svg xmlns="http://www.w3.org/2000/svg" width="66" height="66" viewBox="0 0 66 66"><path d="M 33.519531 3 C 31.769531 3 30.349609 4.4199219 30.349609 6.1699219 L 30.349609 7.1992188 L 16.730469 7.1992188 C 14.980469 7.1992188 13.560547 8.6191406 13.560547 10.369141 L 13.560547 12.349609 L 12.019531 12.349609 C 8.6095312 12.349609 5.8398438 15.119297 5.8398438 18.529297 L 5.8398438 44.359375 L 5.8398438 46.25 C 5.8398438 49.66 8.6095312 52.429688 12.019531 52.429688 L 28.839844 52.429688 L 26.919922 57.359375 L 25.369141 57.359375 C 23.809141 57.359375 22.550781 58.629688 22.550781 60.179688 C 22.550781 60.939687 22.839141 61.649688 23.369141 62.179688 C 23.899141 62.709688 24.609141 63 25.369141 63 L 40.630859 63 C 42.190859 63 43.449219 61.729687 43.449219 60.179688 C 43.449219 59.419688 43.160859 58.709687 42.630859 58.179688 C 42.100859 57.649687 41.390859 57.359375 40.630859 57.359375 L 39.080078 57.359375 L 37.160156 52.429688 L 53.980469 52.429688 C 57.390469 52.429688 60.160156 49.66 60.160156 46.25 L 60.160156 44.359375 L 60.160156 18.529297 C 60.160156 15.119297 57.390469 12.339844 53.980469 12.339844 L 52.439453 12.339844 L 52.439453 6.1699219 C 52.439453 4.4199219 51.019531 3 49.269531 3 L 33.519531 3 z M 33.519531 4.3808594 L 49.269531 4.3808594 C 50.259531 4.3808594 51.060547 5.1799219 51.060547 6.1699219 L 51.060547 14.410156 C 51.060547 15.400156 50.259531 16.199219 49.269531 16.199219 L 48.160156 16.199219 C 47.430156 16.199219 46.769453 16.609766 46.439453 17.259766 L 45.320312 19.490234 C 45.200313 19.740234 44.970859 19.779063 44.880859 19.789062 C 44.780859 19.799063 44.560625 19.800078 44.390625 19.580078 L 42.349609 16.939453 C 41.989609 16.469453 41.420078 16.189453 40.830078 16.189453 L 35.650391 16.189453 L 35.650391 10.349609 C 35.650391 8.5996094 34.230469 7.1796875 32.480469 7.1796875 L 31.730469 7.1796875 L 31.730469 6.1699219 C 31.730469 5.1799219 32.529531 4.3808594 33.519531 4.3808594 z M 36.939453 7.1894531 C 36.559453 7.1894531 36.25 7.5008594 36.25 7.8808594 C 36.25 8.2608594 36.559453 8.5703125 36.939453 8.5703125 L 48.710938 8.5703125 C 49.090938 8.5703125 49.400391 8.2608594 49.400391 7.8808594 C 49.400391 7.5008594 49.090937 7.1894531 48.710938 7.1894531 L 36.939453 7.1894531 z M 16.720703 8.5703125 L 32.470703 8.5703125 C 33.460703 8.5703125 34.259766 9.369375 34.259766 10.359375 L 34.259766 18.599609 C 34.259766 19.589609 33.460703 20.390625 32.470703 20.390625 L 25.169922 20.390625 C 24.579922 20.390625 24.010391 20.670625 23.650391 21.140625 L 21.609375 23.779297 C 21.439375 23.999297 21.209141 24.000234 21.119141 23.990234 C 21.029141 23.980234 20.799687 23.929453 20.679688 23.689453 L 19.560547 21.460938 C 19.230547 20.800937 18.569844 20.400391 17.839844 20.400391 L 16.730469 20.400391 C 15.740469 20.400391 14.939453 19.599375 14.939453 18.609375 L 14.939453 10.359375 L 14.929688 10.359375 C 14.929688 9.369375 15.730703 8.5703125 16.720703 8.5703125 z M 18.320312 11.390625 C 17.940313 11.390625 17.630859 11.700078 17.630859 12.080078 C 17.630859 12.470078 17.940312 12.769531 18.320312 12.769531 L 30.089844 12.769531 C 30.469844 12.769531 30.779297 12.460078 30.779297 12.080078 C 30.779297 11.700078 30.469844 11.390625 30.089844 11.390625 L 18.320312 11.390625 z M 42.429688 11.390625 C 42.049687 11.390625 41.740234 11.700078 41.740234 12.080078 C 41.740234 12.460078 42.049688 12.769531 42.429688 12.769531 L 48.710938 12.769531 C 49.090938 12.769531 49.400391 12.460078 49.400391 12.080078 C 49.400391 11.700078 49.090937 11.390625 48.710938 11.390625 L 42.429688 11.390625 z M 12.019531 13.720703 L 13.560547 13.720703 L 13.560547 18.599609 C 13.560547 20.349609 14.980469 21.769531 16.730469 21.769531 L 17.839844 21.769531 C 18.049844 21.769531 18.240078 21.890078 18.330078 22.080078 L 19.449219 24.310547 C 19.749219 24.910547 20.320234 25.299375 20.990234 25.359375 C 21.050234 25.369375 21.119687 25.369141 21.179688 25.369141 C 21.769687 25.369141 22.329219 25.099141 22.699219 24.619141 L 24.740234 21.980469 C 24.840234 21.850469 25.009687 21.769531 25.179688 21.769531 L 32.480469 21.769531 C 34.230469 21.769531 35.650391 20.349609 35.650391 18.599609 L 35.650391 17.570312 L 40.830078 17.570312 C 41.000078 17.570312 41.159531 17.649062 41.269531 17.789062 L 43.310547 20.429688 C 43.680547 20.909688 44.240078 21.179688 44.830078 21.179688 C 44.890078 21.179688 44.959531 21.179922 45.019531 21.169922 C 45.679531 21.109922 46.260547 20.709141 46.560547 20.119141 L 47.679688 17.890625 C 47.769688 17.700625 47.959922 17.580078 48.169922 17.580078 L 49.279297 17.580078 C 51.029297 17.580078 52.449219 16.160156 52.449219 14.410156 L 52.449219 13.720703 L 53.990234 13.720703 C 56.640234 13.720703 58.800781 15.879297 58.800781 18.529297 L 58.800781 43.679688 L 7.2109375 43.679688 L 7.2109375 18.529297 C 7.2109375 15.879297 9.3695312 13.720703 12.019531 13.720703 z M 18.320312 15.589844 C 17.940313 15.589844 17.630859 15.899297 17.630859 16.279297 C 17.630859 16.659297 17.940312 16.970703 18.320312 16.970703 L 24.599609 16.970703 C 24.979609 16.970703 25.289063 16.659297 25.289062 16.279297 C 25.289062 15.899297 24.979609 15.589844 24.599609 15.589844 L 18.320312 15.589844 z M 31.640625 23.150391 C 31.330625 23.150391 31.070469 23.350625 30.980469 23.640625 L 30.640625 24.810547 C 30.110625 24.970547 29.589609 25.179453 29.099609 25.439453 L 28.039062 24.859375 C 27.769063 24.709375 27.440703 24.760469 27.220703 24.980469 L 25.289062 26.910156 C 25.069063 27.130156 25.029922 27.460469 25.169922 27.730469 L 25.75 28.789062 C 25.49 29.279062 25.269141 29.790078 25.119141 30.330078 L 23.949219 30.669922 C 23.659219 30.759922 23.460938 31.020078 23.460938 31.330078 L 23.460938 34.060547 C 23.460938 34.370547 23.659219 34.630703 23.949219 34.720703 L 25.119141 35.060547 C 25.279141 35.590547 25.489766 36.109609 25.759766 36.599609 L 25.179688 37.660156 C 25.029688 37.930156 25.080781 38.260469 25.300781 38.480469 L 27.230469 40.410156 C 27.450469 40.630156 27.780781 40.669297 28.050781 40.529297 L 29.109375 39.949219 C 29.599375 40.209219 30.110391 40.429844 30.650391 40.589844 L 30.990234 41.759766 C 31.080234 42.049766 31.340391 42.25 31.650391 42.25 L 34.380859 42.25 C 34.690859 42.25 34.949063 42.049766 35.039062 41.759766 L 35.380859 40.589844 C 35.910859 40.429844 36.429922 40.219219 36.919922 39.949219 L 37.980469 40.529297 C 38.250469 40.679297 38.580781 40.630156 38.800781 40.410156 L 40.730469 38.480469 C 40.950469 38.260469 40.989609 37.930156 40.849609 37.660156 L 40.269531 36.599609 C 40.529531 36.109609 40.750391 35.600547 40.900391 35.060547 L 42.070312 34.720703 C 42.360312 34.630703 42.560547 34.370547 42.560547 34.060547 L 42.560547 31.330078 C 42.550547 31.020078 42.350547 30.749922 42.060547 30.669922 L 40.890625 30.330078 C 40.730625 29.800078 40.519766 29.279062 40.259766 28.789062 L 40.839844 27.730469 C 40.989844 27.460469 40.940703 27.130156 40.720703 26.910156 L 38.789062 24.980469 C 38.569063 24.760469 38.240703 24.719375 37.970703 24.859375 L 36.910156 25.439453 C 36.420156 25.179453 35.909141 24.960547 35.369141 24.810547 L 35.029297 23.640625 C 34.939297 23.350625 34.679141 23.150391 34.369141 23.150391 L 31.640625 23.150391 z M 32.160156 24.519531 L 33.859375 24.519531 L 34.169922 25.570312 C 34.239922 25.810312 34.429922 25.989062 34.669922 26.039062 C 35.339922 26.199063 35.970547 26.470313 36.560547 26.820312 C 36.770547 26.950312 37.03 26.949844 37.25 26.839844 L 38.199219 26.320312 L 39.410156 27.529297 L 38.890625 28.480469 C 38.770625 28.700469 38.780156 28.959922 38.910156 29.169922 C 39.260156 29.749922 39.529453 30.390547 39.689453 31.060547 C 39.749453 31.300547 39.930156 31.490547 40.160156 31.560547 L 41.210938 31.869141 L 41.210938 33.539062 L 41.179688 33.539062 L 40.140625 33.849609 C 39.900625 33.919609 39.720156 34.109609 39.660156 34.349609 C 39.500156 35.019609 39.230859 35.660234 38.880859 36.240234 C 38.750859 36.450234 38.749375 36.709688 38.859375 36.929688 L 39.380859 37.880859 L 38.179688 39.089844 L 37.230469 38.570312 C 37.020469 38.450313 36.749063 38.459844 36.539062 38.589844 C 35.959063 38.939844 35.320391 39.209141 34.650391 39.369141 C 34.410391 39.429141 34.220391 39.609844 34.150391 39.839844 L 33.839844 40.890625 L 32.140625 40.890625 L 31.830078 39.839844 C 31.760078 39.599844 31.570078 39.419141 31.330078 39.369141 C 30.660078 39.209141 30.029453 38.949844 29.439453 38.589844 C 29.229453 38.459844 28.97 38.460312 28.75 38.570312 L 27.800781 39.089844 L 26.599609 37.890625 L 27.119141 36.939453 C 27.239141 36.719453 27.229609 36.46 27.099609 36.25 C 26.759609 35.7 26.509375 35.099766 26.359375 34.509766 L 26.330078 34.400391 C 26.280078 34.140391 26.099609 33.939375 25.849609 33.859375 L 24.810547 33.550781 L 24.810547 31.849609 L 25.859375 31.539062 C 26.099375 31.469062 26.280078 31.279062 26.330078 31.039062 C 26.490078 30.369062 26.749375 29.740156 27.109375 29.160156 C 27.239375 28.950156 27.240859 28.690703 27.130859 28.470703 L 26.609375 27.519531 L 27.820312 26.320312 L 28.769531 26.839844 C 28.989531 26.959844 29.250937 26.950312 29.460938 26.820312 C 30.040937 26.470312 30.679609 26.199063 31.349609 26.039062 C 31.589609 25.979063 31.779609 25.800313 31.849609 25.570312 L 32.160156 24.519531 z M 33 28.710938 C 30.81 28.710938 29.019531 30.489453 29.019531 32.689453 C 29.019531 34.889453 30.81 36.669922 33 36.669922 C 35.19 36.669922 36.980469 34.879453 36.980469 32.689453 C 36.980469 30.499453 35.19 28.710938 33 28.710938 z M 33 30.089844 C 34.44 30.089844 35.599609 31.259453 35.599609 32.689453 C 35.599609 34.119453 34.44 35.300781 33 35.300781 C 31.56 35.300781 30.390625 34.129453 30.390625 32.689453 C 30.390625 31.249453 31.56 30.089844 33 30.089844 z M 7.2109375 45.050781 L 58.779297 45.050781 L 58.779297 46.25 L 58.789062 46.25 C 58.789062 48.9 56.630469 51.060547 53.980469 51.060547 L 12.019531 51.060547 C 9.3695312 51.060547 7.2109375 48.9 7.2109375 46.25 L 7.2109375 45.050781 z M 28.849609 47.359375 C 28.469609 47.359375 28.160156 47.670781 28.160156 48.050781 C 28.160156 48.430781 28.469609 48.740234 28.849609 48.740234 L 37.150391 48.740234 C 37.530391 48.740234 37.839844 48.430781 37.839844 48.050781 C 37.839844 47.670781 37.530391 47.359375 37.150391 47.359375 L 28.849609 47.359375 z M 30.320312 52.429688 L 35.679688 52.429688 L 37.599609 57.359375 L 28.400391 57.359375 L 30.320312 52.429688 z M 25.369141 58.730469 L 27.390625 58.730469 L 38.599609 58.730469 L 40.619141 58.730469 C 41.019141 58.730469 41.390156 58.880391 41.660156 59.150391 C 41.930156 59.420391 42.080078 59.789687 42.080078 60.179688 C 42.080078 60.979687 41.430859 61.630859 40.630859 61.630859 L 25.369141 61.630859 C 24.979141 61.630859 24.619844 61.480938 24.339844 61.210938 C 24.069844 60.940937 23.919922 60.569688 23.919922 60.179688 C 23.919922 59.379688 24.569141 58.730469 25.369141 58.730469 z"/></svg>